<?xml version="1.0" encoding="UTF-8" standalone="no"?>
<!-- Created with Inkscape (http://www.inkscape.org/) -->

<svg
   width="15.960935mm"
   height="15.960936mm"
   viewBox="0 0 15.960935 15.960936"
   version="1.1"
   id="svg1"
   xml:space="preserve"
   sodipodi:docname="O-1.svg"
   inkscape:version="1.4 (86a8ad7, 2024-10-11)"
   inkscape:export-filename="O-1.svg"
   inkscape:export-xdpi="96"
   inkscape:export-ydpi="96"
   xmlns:inkscape="http://www.inkscape.org/namespaces/inkscape"
   xmlns:sodipodi="http://sodipodi.sourceforge.net/DTD/sodipodi-0.dtd"
   xmlns="http://www.w3.org/2000/svg"
   xmlns:svg="http://www.w3.org/2000/svg"><sodipodi:namedview
     id="namedview1"
     pagecolor="#ffffff"
     bordercolor="#000000"
     borderopacity="0.25"
     inkscape:showpageshadow="2"
     inkscape:pageopacity="0.0"
     inkscape:pagecheckerboard="0"
     inkscape:deskcolor="#d1d1d1"
     inkscape:document-units="mm"
     inkscape:zoom="7.8574659"
     inkscape:cx="32.835014"
     inkscape:cy="31.116902"
     inkscape:window-width="1280"
     inkscape:window-height="650"
     inkscape:window-x="-6"
     inkscape:window-y="-6"
     inkscape:window-maximized="1"
     inkscape:current-layer="svg1" /><defs
     id="defs1" /><path
     style="fill:#868686;fill-opacity:0"
     d="m 15.699786,7.980704 a 7.7191005,7.7191005 0 0 1 -7.719101,7.7191 7.7191005,7.7191005 0 0 1 -7.7191,-7.7191 7.7191005,7.7191005 0 0 1 7.7191,-7.719101 7.7191005,7.7191005 0 0 1 7.719101,7.719101 z"
     id="path19" /><path
     d="M 7.980472,-1e-6 C 3.576134,-1e-6 3e-6,3.576129 3e-6,7.980467 c 0,4.404338 3.576131,7.980469 7.980469,7.980469 4.404338,0 7.980469,-3.576131 7.980469,-7.980469 C 15.960941,3.576129 12.38481,-1e-6 7.980472,-1e-6 Z m 0,0.523437 c 4.121945,0 7.458984,3.335086 7.458984,7.457031 0,4.121945 -3.337039,7.458985 -7.458984,7.458985 -4.121945,0 -7.457031,-3.33704 -7.457031,-7.458985 0,-4.121945 3.335086,-7.457031 7.457031,-7.457031 z"
     id="path21" /><style
     type="text/css"
     id="style1">
	.st0{display:none;}
	.st1{display:inline;fill:#432918;}
	.st2{display:inline;fill:#B72A16;}
	.st3{fill:#B72A16;}
	.st4{fill:#432918;}
	.st5{opacity:0.4;}
	.st6{fill:#FFFFFF;}
</style><style
     type="text/css"
     id="style1-4">
	.st0{display:none;}
	.st1{display:inline;fill:#432918;}
	.st2{display:inline;fill:#B72A16;}
	.st3{fill:#B72A16;}
	.st4{fill:#432918;}
	.st5{opacity:0.4;}
	.st6{fill:#FFFFFF;}
</style><style
     type="text/css"
     id="style1-2">
	.st0{display:none;}
	.st1{display:inline;fill:#432918;}
	.st2{display:inline;fill:#B72A16;}
	.st3{fill:#B72A16;}
	.st4{fill:#432918;}
	.st5{opacity:0.4;}
	.st6{fill:#FFFFFF;}
</style><style
     type="text/css"
     id="style1-7">
	.st0{display:none;}
	.st1{display:inline;fill:#432918;}
	.st2{display:inline;fill:#B72A16;}
	.st3{fill:#B72A16;}
	.st4{fill:#432918;}
	.st5{opacity:0.4;}
	.st6{fill:#FFFFFF;}
</style><style
     type="text/css"
     id="style1-42">
	.st0{display:none;}
	.st1{display:inline;fill:#432918;}
	.st2{display:inline;fill:#B72A16;}
	.st3{fill:#B72A16;}
	.st4{fill:#432918;}
	.st5{opacity:0.4;}
	.st6{fill:#FFFFFF;}
</style><style
     type="text/css"
     id="style1-9">
	.st0{fill:#FFFFFF;}
	.st1{fill:#00A4E8;}
	.st2{fill:#262274;}
</style><text
     xml:space="preserve"
     style="font-size:22.5778px;font-family:Renogare;-inkscape-font-specification:Renogare;text-align:start;writing-mode:lr-tb;direction:ltr;text-anchor:start;fill:#868686;fill-opacity:0;stroke:#000000;stroke-width:2.65401"
     x="8.9569798"
     y="11.213062"
     id="text1"><tspan
       sodipodi:role="line"
       id="tspan1"
       style="stroke-width:2.654"
       x="8.9569798"
       y="11.213062" /></text></svg>
